HIERARCHY
ROOT Hips
{
	OFFSET 0.00000 0.00000 0.00000
	CHANNELS 6 Xposition Yposition Zposition Zrotation Yrotation Xrotation 
	JOINT LHipJoint
	{
		OFFSET 0 0 0
		CHANNELS 3 Zrotation Yrotation Xrotation
		JOINT LeftHip
		{
			OFFSET 1.57358 -1.76629 0.73362
			CHANNELS 3 Zrotation Yrotation Xrotation
			JOINT LeftKnee
			{
				OFFSET 2.40600 -6.61045 0.00000
				CHANNELS 3 Zrotation Yrotation Xrotation
				JOINT LeftAnkle
				{
					OFFSET 2.66168 -7.31291 0.00000
					CHANNELS 3 Zrotation Yrotation Xrotation
					JOINT LeftToe
					{
						OFFSET 0.20870 -0.57341 2.12506
						CHANNELS 3 Zrotation Yrotation Xrotation
						End Site
						{
							OFFSET 0.00000 -0.00000 1.10557
						}
					}
				}
			}
		}
	}
	JOINT RHipJoint
	{
		OFFSET 0 0 0
		CHANNELS 3 Zrotation Yrotation Xrotation
		JOINT RightHip
		{
			OFFSET -1.49299 -1.76629 0.73362
			CHANNELS 3 Zrotation Yrotation Xrotation
			JOINT RightKnee
			{
				OFFSET -2.43663 -6.69460 0.00000
				CHANNELS 3 Zrotation Yrotation Xrotation
				JOINT RightAnkle
				{
					OFFSET -2.62959 -7.22474 0.00000
					CHANNELS 3 Zrotation Yrotation Xrotation
					JOINT RightToe
					{
						OFFSET -0.25784 -0.70841 2.21862
						CHANNELS 3 Zrotation Yrotation Xrotation
						End Site
						{
							OFFSET -0.00000 -0.00000 1.16452
						}
					}
				}
			}
		}
	}
	JOINT lowerback
	{
		OFFSET 0 0 0
		CHANNELS 3 Zrotation Yrotation Xrotation
		JOINT Chest
		{
			OFFSET -0.00034 2.12399 -0.25450
			CHANNELS 3 Zrotation Yrotation Xrotation
			JOINT Chest2
			{
				OFFSET 0.05594 2.14379 -0.03318
				CHANNELS 3 Zrotation Yrotation Xrotation
				JOINT lowerneck
				{
					OFFSET 0 0 0
					CHANNELS 3 Zrotation Yrotation Xrotation
					JOINT Neck
					{
						OFFSET -0.09835 1.62725 0.24211
						CHANNELS 3 Zrotation Yrotation Xrotation
						JOINT Head
						{
							OFFSET 0.10849 1.66041 -0.22648
							CHANNELS 3 Zrotation Yrotation Xrotation
							End Site
							{
								OFFSET 0.04385 1.68267 -0.10541
							}
						}
					}
				}
				JOINT LeftCollar
				{
					OFFSET 0 0 0
					CHANNELS 3 Zrotation Yrotation Xrotation
					JOINT LeftShoulder
					{
						OFFSET 3.29108 0.79398 -0.68179
CHANNELS 3 Zrotation Xrotation Yrotation
						JOINT LeftElbow
						{
OFFSET 0 -5.153100 -0.000000
CHANNELS 3 Zrotation Xrotation Yrotation
							JOINT LeftWrist
							{
OFFSET 0 -3.751380 -0.000000
CHANNELS 3 Zrotation Xrotation Yrotation
								JOINT lhand
								{
									OFFSET 0 0 0
CHANNELS 3 Zrotation Xrotation Yrotation
									JOINT LFingers
									{
OFFSET 0 -0.529170 0.000000
CHANNELS 3 Zrotation Xrotation Yrotation
										End Site
										{
OFFSET 0 -0.426630 0.000000
										}
									}
								}
								JOINT LThumb
								{
OFFSET 0 0.000000 0.000000
CHANNELS 3 Zrotation Xrotation Yrotation
									End Site
									{
OFFSET 0 -0.433150 0.433150
									}
								}
							}
						}
					}
				}
				JOINT RightCollar
				{
					OFFSET 0 0 0
					CHANNELS 3 Zrotation Yrotation Xrotation
					JOINT RightShoulder
					{
						OFFSET -3.07414 1.06285 -0.44338
CHANNELS 3 Zrotation Xrotation Yrotation
						JOINT RightElbow
						{
OFFSET 0 -5.296130 0.000000
CHANNELS 3 Zrotation Xrotation Yrotation
							JOINT RightWrist
							{
OFFSET 0 -3.761440 -0.000000
CHANNELS 3 Zrotation Xrotation Yrotation
								JOINT rhand
								{
									OFFSET 0 0 0
CHANNELS 3 Zrotation Xrotation Yrotation
									JOINT RFingers
									{
OFFSET 0 -0.747320 0.000000
CHANNELS 3 Zrotation Xrotation Yrotation
										End Site
										{
OFFSET 0 -0.602510 0.000000
										}
									}
								}
								JOINT RThumb
								{
OFFSET 0 0.000000 0.000000
CHANNELS 3 Zrotation Xrotation Yrotation
									End Site
									{
OFFSET 0 -0.611710 0.611710
									}
								}
							}
						}
					}
				}
			}
		}
	}
}
MOTION
Frames: 7
Frame Time: 0.008333333333333333
1.094500 16.632100 -30.171100 2.527500 -1.751300 3.339300 0.000000 0.000000 0.000000 -26.446200 -5.342100 -21.058100 6.190700 14.610600 45.742200 1.680300 -7.059400 -23.241400 0.000000 0.018200 0.050000 0.000000 0.000000 0.000000 15.401200 4.567700 -20.260800 -21.260400 -19.961900 93.687400 -0.018300 -9.009800 6.649900 -0.003500 -0.379600 1.043100 -4.718600 1.086400 14.172900 0.064300 0.694400 1.085900 2.601400 0.479400 -6.863400 -9.440700 -5.330300 -20.746300 10.588100 -6.214200 10.188600 4.259600 -2.428300 7.139000 -0.000000 0.000000 0.000000 3.128000 9.931600 -41.045200 129.996600 -52.996900 93.823100 28.896400 -27.295200 -10.293700 0.000000 0.000000 0.000000 -7.125000 0.000000 0.000000 1.667800 41.693500 0.136100 -0.000000 0.000000 0.000000 -3.788600 14.383600 45.268100 -118.563900 -56.680600 -84.461400 -3.698200 -6.421700 -22.036500 0.000000 0.000000 0.000000 7.125000 0.000000 -0.000000 15.746000 8.551900 13.774200
1.089698 16.620707 -30.062192 2.577968 -1.865795 3.426270 0.000000 0.000000 0.000000 -26.537469 -5.126983 -20.779050 6.193054 14.612828 45.751553 1.722671 -7.016653 -23.540505 0.002228 -0.158407 -0.435253 0.000000 0.000000 0.000000 15.173999 4.694561 -21.165836 -21.424641 -19.949848 94.168919 -0.011583 -8.847787 6.411714 -0.002402 -0.272104 0.747730 -4.820949 1.099708 14.147948 0.029776 0.695373 1.110004 2.622648 0.481001 -6.824702 -9.312333 -5.341693 -20.776179 10.494445 -6.233753 10.004272 4.202980 -2.441670 7.078018 0.000000 0.000000 0.000000 3.241020 9.357808 -41.136281 130.023435 -52.986041 93.844536 28.947653 -27.081966 -10.583264 0.000000 0.000000 0.000000 -7.125000 0.000000 0.000000 1.695576 42.026627 0.123922 0.000000 0.000000 0.000000 -3.699590 14.583558 45.105271 -118.295584 -56.746353 -84.236930 -3.675665 -6.425090 -21.881110 0.000000 0.000000 0.000000 7.125000 0.000000 0.000000 15.763953 8.703022 13.741716
1.084896 16.609314 -29.953284 2.628436 -1.980290 3.513239 0.000000 0.000000 0.000000 -26.628739 -4.911866 -20.500001 6.195408 14.615057 45.760906 1.765041 -6.973906 -23.839610 0.004457 -0.335014 -0.920507 0.000000 0.000000 0.000000 14.946799 4.821422 -22.070873 -21.588882 -19.937796 94.650437 -0.004867 -8.685775 6.173529 -0.001303 -0.164608 0.452359 -4.923297 1.113015 14.122997 -0.004748 0.696346 1.134108 2.643896 0.482601 -6.786003 -9.183965 -5.353086 -20.806058 10.400790 -6.253307 9.819944 4.146361 -2.455041 7.017035 0.000000 0.000000 0.000000 3.354039 8.784015 -41.227362 130.050269 -52.975181 93.865973 28.998906 -26.868732 -10.872828 0.000000 0.000000 0.000000 -7.125000 0.000000 0.000000 1.723353 42.359754 0.111745 0.000000 0.000000 0.000000 -3.610581 14.783516 44.942443 -118.027268 -56.812106 -84.012460 -3.653130 -6.428479 -21.725719 0.000000 0.000000 0.000000 7.125000 0.000000 0.000000 15.781905 8.854144 13.709232
1.080094 16.597921 -29.844375 2.678904 -2.094784 3.600209 0.000000 0.000000 0.000000 -26.720008 -4.696748 -20.220951 6.197762 14.617285 45.770259 1.807412 -6.931158 -24.138716 0.006685 -0.511621 -1.405760 0.000000 0.000000 0.000000 14.719598 4.948282 -22.975909 -21.753123 -19.925744 95.131956 0.001850 -8.523762 5.935343 -0.000205 -0.057113 0.156989 -5.025646 1.126323 14.098045 -0.039273 0.697319 1.158213 2.665144 0.484202 -6.747305 -9.055598 -5.364479 -20.835937 10.307136 -6.272860 9.635616 4.089741 -2.468411 6.956053 0.000000 0.000000 0.000000 3.467059 8.210223 -41.318443 130.077104 -52.964322 93.887409 29.050158 -26.655498 -11.162392 0.000000 0.000000 0.000000 -7.125000 0.000000 0.000000 1.751129 42.692882 0.099567 0.000000 0.000000 0.000000 -3.521571 14.983474 44.779614 -117.758952 -56.877859 -83.787990 -3.630595 -6.431869 -21.570329 0.000000 0.000000 0.000000 7.125000 0.000000 0.000000 15.799858 9.005266 13.676748
1.078051 16.584025 -29.739401 2.729705 -2.047288 3.688456 0.000000 0.000000 0.000000 -26.823359 -4.611285 -19.893319 6.184381 14.604622 45.717160 1.841609 -6.950607 -24.372125 0.013613 -0.702941 -1.931933 0.000000 0.000000 0.000000 14.494926 4.868172 -23.773233 -21.886381 -19.913692 95.523207 0.012193 -8.258634 5.510799 -0.000128 0.007753 -0.021243 -5.052337 1.063973 14.107857 -0.069148 0.608816 1.189137 2.666060 0.440081 -6.712156 -9.045621 -5.360700 -21.058944 10.342394 -6.261915 9.687455 4.100119 -2.452560 7.009246 0.000000 0.000000 0.000000 3.536605 7.601616 -41.341530 130.072241 -52.966285 93.883533 28.992446 -26.420195 -11.391011 0.000000 0.000000 0.000000 -7.125000 0.000000 0.000000 1.682022 42.944324 0.086342 0.000000 0.000000 0.000000 -3.493787 15.152755 44.693898 -117.627953 -56.909436 -83.678257 -3.506759 -6.404429 -21.511439 0.000000 0.000000 0.000000 7.125000 0.000000 0.000000 15.877938 9.070054 13.728707
1.076638 16.569556 -29.635326 2.780581 -1.962735 3.776994 0.000000 0.000000 0.000000 -26.929474 -4.555482 -19.554574 6.167402 14.588553 45.649775 1.873936 -6.984284 -24.590507 0.021617 -0.897626 -2.467466 0.000000 0.000000 0.000000 14.270833 4.740715 -24.545916 -22.012551 -19.901640 95.893808 0.023366 -7.969917 5.043624 -0.000285 0.062866 -0.172679 -5.061722 0.984316 14.125621 -0.097960 0.499845 1.221621 2.662326 0.385502 -6.677821 -9.062726 -5.353450 -21.326130 10.407143 -6.243994 9.793319 4.125824 -2.430026 7.088558 0.000000 0.000000 0.000000 3.596207 6.985045 -41.349063 130.060126 -52.971181 93.873866 28.909808 -26.179844 -11.605689 0.000000 0.000000 0.000000 -7.125000 0.000000 0.000000 1.590753 43.177080 0.072878 0.000000 0.000000 0.000000 -3.480009 15.315019 44.625823 -117.528367 -56.933195 -83.594771 -3.359748 -6.369936 -21.474623 0.000000 0.000000 0.000000 7.125000 0.000000 0.000000 15.969772 9.115092 13.799984
1.075226 16.555087 -29.531251 2.831457 -1.878182 3.865533 0.000000 0.000000 0.000000 -27.035589 -4.499678 -19.215829 6.150422 14.572483 45.582390 1.906263 -7.017961 -24.808888 0.029620 -1.092311 -3.002999 0.000000 0.000000 0.000000 14.046739 4.613257 -25.318599 -22.138722 -19.889587 96.264410 0.034540 -7.681201 4.576448 -0.000442 0.117979 -0.324114 -5.071106 0.904659 14.143386 -0.126772 0.390874 1.254105 2.658591 0.330922 -6.643485 -9.079831 -5.346199 -21.593316 10.471891 -6.226073 9.899183 4.151529 -2.407491 7.167869 0.000000 0.000000 0.000000 3.655808 6.368474 -41.356595 130.048011 -52.976077 93.864199 28.827170 -25.939492 -11.820367 0.000000 0.000000 0.000000 -7.125000 0.000000 0.000000 1.499483 43.409836 0.059413 0.000000 0.000000 0.000000 -3.466230 15.477283 44.557747 -117.428780 -56.956954 -83.511285 -3.212738 -6.335443 -21.437808 0.000000 0.000000 0.000000 7.125000 0.000000 0.000000 16.061606 9.160130 13.871261
